<?xml version="1.0" standalone="no"?>
<!DOCTYPE svg PUBLIC "-//W3C//DTD SVG 20010904//EN"
 "http://www.w3.org/TR/2001/REC-SVG-20010904/DTD/svg10.dtd">
<svg version="1.0" xmlns="http://www.w3.org/2000/svg"
 width="481.000000pt" height="489.000000pt" viewBox="0 0 481.000000 489.000000"
 preserveAspectRatio="xMidYMid meet">

<g transform="translate(0.000000,489.000000) scale(0.100000,-0.100000)"
fill="#000000" stroke="none">
<path d="M2360 4637 c-3 -2 -45 -7 -95 -10 -497 -31 -1050 -295 -1392 -664
-317 -342 -480 -673 -557 -1126 -16 -91 -21 -183 -20 -347 1 -323 67 -614 208
-913 163 -347 454 -671 791 -882 378 -236 840 -349 1300 -315 282 21 533 87
794 211 224 106 393 223 562 390 133 131 192 203 292 354 86 131 167 291 217
428 30 82 87 292 94 347 2 14 7 48 11 75 3 28 9 61 12 75 13 59 11 457 -2 540
-55 336 -166 629 -336 882 -150 222 -361 435 -573 577 -243 163 -587 306 -831
345 -141 23 -463 45 -475 33z m-676 -788 c14 -7 32 -27 41 -45 45 -96 -80
-215 -193 -184 -55 14 -77 43 -76 96 1 51 40 109 88 130 38 16 107 18 140 3z
m603 -99 c114 -51 108 -194 -8 -207 -152 -17 -246 156 -115 213 43 18 74 17
123 -6z m609 -371 c156 -78 197 -281 69 -335 -95 -39 -221 19 -277 129 -75
148 59 280 208 206z m-1201 -260 c112 -34 182 -120 234 -284 50 -156 91 -199
309 -325 96 -55 172 -131 213 -216 l34 -69 2 -200 c2 -172 -1 -208 -17 -258
-25 -81 -79 -158 -143 -206 -88 -66 -168 -87 -277 -70 -167 25 -275 134 -329
332 -40 147 -75 197 -210 301 -130 100 -192 168 -222 248 -23 59 -24 76 -24
268 0 191 2 209 23 263 45 110 128 189 235 222 60 19 96 18 172 -6z m1896
-249 c45 -25 65 -125 32 -162 -40 -45 -125 -3 -139 67 -14 79 42 129 107 95z
m-470 -159 c49 -39 20 -141 -39 -141 -62 0 -85 82 -37 134 29 31 45 33 76 7z
m262 -341 c79 -63 41 -230 -53 -230 -63 0 -100 45 -100 122 0 99 87 160 153
108z m124 -557 c128 -60 154 -287 47 -412 -63 -73 -128 -90 -204 -51 -126 64
-150 269 -49 412 43 60 138 84 206 51z"/>
</g>
</svg>
